<svg width="1720" height="326" viewBox="0 0 1720 326" fill="none" xmlns="http://www.w3.org/2000/svg">
<g clip-path="url(#clip0_1_6)">
<path d="M324.871 68H436.668L479.834 68.3105L479.213 69.8633L475.797 73.5898L473.623 76.0742L470.828 79.1797L468.654 81.6641L465.859 84.7695L463.064 88.1855L459.027 92.5332L456.232 95.9492L452.195 100.297L449.4 103.713L445.363 108.061L442.568 111.477L438.531 115.824L436.357 118.309L432.631 122.656L429.215 126.383L427.352 128.557L280.773 128.867L273.32 129.488L265.867 130.73L259.346 132.904L252.824 136.32L250.34 138.184L250.029 138.805L262.451 138.494H412.756L416.793 138.805L416.172 140.047L412.445 144.084L409.65 147.189L406.855 150.605L402.818 154.953L400.023 158.369L397.85 160.543L395.055 163.959L391.018 168.307L388.844 170.791L386.049 173.896L383.254 177.312L379.838 181.039L377.664 183.523L374.869 186.629L371.764 190.045L368.969 193.461L353.752 193.771H201.584L199.721 195.324L197.547 197.809L194.441 201.225L191.646 204.641L186.678 209.92L184.504 212.404L181.709 215.51L178.293 219.236L174.566 223.584L169.908 228.553L167.734 231.037L164.318 235.074L162.145 237.248L159.971 239.732L157.176 242.838L153.139 247.186L150.965 249.67L147.859 253.086L145.686 255.57L144.133 257.434L142.58 258.055H46L46.3105 256.812L50.6582 252.154L53.7637 248.738L56.5586 245.322L60.5957 240.975L62.7695 238.49L65.5645 235.385L67.7383 232.9L71.4648 228.863L74.2598 225.447L76.7441 222.963L78.918 220.479L82.6445 216.131L86.6816 211.783L88.8555 209.299L91.6504 206.193L93.8242 203.709L96.6191 200.604L98.793 198.119L102.209 194.393L104.383 191.908L109.973 185.697L113.699 181.35L117.115 177.623L120.842 173.275L124.568 169.238L127.363 166.133L130.158 162.717L132.953 159.922L135.127 157.438L138.854 153.09L143.512 148.121L146.307 144.705L148.791 142.221L149.102 141.6H149.723L150.344 140.357L162.145 128.557L164.629 126.383L168.045 123.277L171.461 120.482L174.256 117.998L178.604 114.582L184.193 110.234L190.094 106.197L196.615 101.85L205 96.8809L211.832 93.1543L216.801 90.6699L222.701 87.875L231.707 84.1484L241.023 80.7324L253.135 77.0059L264.314 74.2109L277.357 71.7266L285.742 70.4844L301.58 68.9316L312.139 68.3105L324.871 68Z" fill="#FF1E00"/>
<path d="M515.374 68H613L611.764 69.8658L609.602 72.0426L607.439 74.5303L604.041 78.2619L600.333 82.6154L595.699 87.5908L592.919 91.0115L590.447 93.4992L588.285 95.9869L584.577 100.34L582.415 102.517L580.252 105.005L577.163 108.426L574.382 111.846L571.293 114.956L568.512 118.376L563.878 123.352L561.098 126.462L558.317 129.882L555.846 132.37L553.683 134.858L550.902 137.967L548.74 140.455L545.341 144.187L542.561 147.296L540.398 149.784L534.837 156.003L532.675 158.491L528.659 162.845L525.878 166.265L521.244 171.241L518.154 174.661L515.992 177.149L512.285 181.502L508.268 185.856L506.106 188.344L503.325 191.453L500.236 194.874L498.073 197.362L494.675 201.093L490.659 205.758L486.333 210.422L484.171 212.91L481.39 216.02L479.228 218.507L476.138 221.928L473.976 224.416L471.195 227.525L467.797 231.257L464.089 235.61L460.073 239.964L457.911 242.452L454.512 246.183L452.35 248.671L449.569 251.781L447.406 254.268L444.317 257.689L442.463 258H347.618L347 257.378L350.5 253.439L354 249.5L356.577 246.805L359.358 243.696L361.52 241.208L365.228 237.165L368.008 233.745L370.171 231.568L372.333 229.08L375.423 225.66L377.585 223.172L380.984 219.44L383.146 216.953L385.927 213.843L388.089 211.355L392.106 207.002L394.886 203.581L399.52 198.606L401.683 196.118L404.772 192.697L406.935 190.209L410.024 186.789L412.187 184.301L415.276 180.881L417.439 178.393L420.837 174.661L423.618 171.241L426.089 168.753L428.252 166.265L431.65 162.534L433.813 160.046L436.594 156.936L438.756 154.448L442.154 150.717L444.317 148.229L448.024 143.876L450.187 141.699L452.35 139.211L456.057 134.858L460.691 129.882L462.854 127.394L465.634 124.285L469.341 119.931L473.976 114.956L476.138 112.468L478.919 109.358L481.081 106.871L484.48 103.139L487.26 99.7185L489.732 97.2308L492.512 93.8101L494.675 91.6334L496.837 89.1457L500.236 85.4141L503.016 82.3044L505.179 79.8167L507.959 76.707L511.358 72.9755L513.5 70.5L515.374 68Z" fill="white"/>
<path d="M692.182 258L660.689 214.765H654.391L640.444 258H613L645.843 156.314H673.286L660.389 196.085H666.688L717.077 156.314H753.818L687.383 206.63L724.425 258H692.182Z" fill="white"/>
<path d="M750.1 258C744.001 258 739.652 256.795 737.053 254.385C734.553 251.874 733.303 248.56 733.303 244.442C733.303 241.329 733.803 238.115 734.803 234.801C735.803 231.386 737.153 228.222 738.852 225.31C741.452 220.891 744.801 217.476 748.9 215.066C753.099 212.656 758.498 211.451 765.096 211.451H812.336C812.935 209.241 813.235 207.333 813.235 205.726C813.235 203.516 812.486 202.01 810.986 201.207C809.586 200.403 807.187 200.001 803.788 200.001H749.2L755.048 181.623H808.137C819.034 181.623 827.082 183.179 832.281 186.293C837.58 189.306 840.229 194.528 840.229 201.96C840.229 206.68 839.08 212.656 836.78 219.887L824.483 258H750.1ZM808.436 225.912H771.095C767.096 225.912 763.996 227.319 761.797 230.131C761.197 231.034 760.647 232.089 760.147 233.294C759.747 234.399 759.547 235.554 759.547 236.759C759.547 238.567 760.897 239.471 763.597 239.471H803.937L808.436 225.912Z" fill="white"/>
<path d="M833.374 258L839.223 239.772L877.014 214.463C879.514 212.756 882.013 211.149 884.513 209.643C887.112 208.036 889.512 206.63 891.711 205.425C893.911 204.119 895.76 203.115 897.26 202.412C898.759 201.608 899.759 201.106 900.259 200.905L900.409 200.303C899.309 200.504 896.51 200.704 892.011 200.905C887.612 201.006 882.413 201.056 876.414 201.056H851.67L857.969 181.623H950.648L945.999 196.085L904.308 224.707C897.41 229.528 892.061 232.943 888.262 234.951C884.563 236.96 882.163 238.165 881.063 238.567V239.32C882.163 239.019 884.663 238.818 888.562 238.717C892.561 238.617 897.96 238.567 904.758 238.567H932.202L926.053 258H833.374Z" fill="white"/>
<path d="M955.278 258C949.179 258 944.83 256.795 942.231 254.385C939.732 251.874 938.482 248.56 938.482 244.442C938.482 241.329 938.982 238.115 939.981 234.801C940.981 231.386 942.331 228.222 944.031 225.31C946.63 220.891 949.979 217.476 954.078 215.066C958.277 212.656 963.676 211.451 970.275 211.451H1017.51C1018.11 209.241 1018.41 207.333 1018.41 205.726C1018.41 203.516 1017.66 202.01 1016.16 201.207C1014.76 200.403 1012.37 200.001 1008.97 200.001H954.378L960.227 181.623H1013.31C1024.21 181.623 1032.26 183.179 1037.46 186.293C1042.76 189.306 1045.41 194.528 1045.41 201.96C1045.41 206.68 1044.26 212.656 1041.96 219.887L1029.66 258H955.278ZM1013.61 225.912H976.273C972.274 225.912 969.175 227.319 966.975 230.131C966.376 231.034 965.826 232.089 965.326 233.294C964.926 234.399 964.726 235.554 964.726 236.759C964.726 238.567 966.076 239.471 968.775 239.471H1009.12L1013.61 225.912Z" fill="white"/>
<path d="M1107.99 258L1082.49 225.611H1077.54L1067.2 258H1040.05L1073.94 153H1101.09L1082.19 211.451H1087.14L1125.23 181.623H1160.63L1109.19 220.489L1138.73 258H1107.99Z" fill="white"/>
<path d="M1219.44 258L1232.64 216.874C1233.24 214.966 1233.69 213.258 1233.99 211.752C1234.39 210.245 1234.59 208.94 1234.59 207.835C1234.59 205.425 1233.69 203.717 1231.89 202.713C1230.19 201.608 1227.19 201.056 1222.89 201.056H1198.75C1196.75 201.056 1195.2 201.056 1194.1 201.056C1193 200.956 1191.8 200.805 1190.5 200.604L1172.06 258H1144.91L1178.8 153H1205.95L1196.65 181.623H1232.49C1241.79 181.623 1249.04 183.38 1254.24 186.895C1259.54 190.31 1262.19 195.783 1262.19 203.316C1262.19 207.433 1261.39 211.953 1259.79 216.874L1246.59 258H1219.44Z" fill="white"/>
<path d="M1255.89 258L1261.89 239.32H1317.08C1319.28 239.32 1321.23 238.968 1322.93 238.265C1324.63 237.562 1325.98 236.458 1326.98 234.951C1327.98 233.344 1328.48 231.687 1328.48 229.98C1328.48 228.674 1327.23 228.022 1324.73 228.022H1291.14C1283.64 228.022 1278.14 226.766 1274.64 224.255C1271.14 221.745 1269.39 218.079 1269.39 213.258C1269.39 210.044 1269.99 206.73 1271.19 203.316C1272.49 199.901 1274.14 196.788 1276.14 193.976C1282.14 185.74 1292.14 181.623 1306.13 181.623H1367.62L1361.77 200.001H1307.48C1302.88 200.001 1299.63 201.207 1297.73 203.617C1297.13 204.32 1296.58 205.224 1296.08 206.329C1295.68 207.333 1295.48 208.337 1295.48 209.341C1295.48 210.145 1295.88 210.697 1296.68 210.999C1297.48 211.199 1298.83 211.3 1300.73 211.3H1335.68C1342.77 211.3 1347.82 212.505 1350.82 214.915C1353.92 217.225 1355.47 220.539 1355.47 224.858C1355.47 227.57 1355.02 230.382 1354.12 233.294C1353.32 236.106 1352.22 239.019 1350.82 242.032C1348.12 247.455 1344.32 251.472 1339.42 254.083C1334.53 256.694 1327.63 258 1318.73 258H1255.89Z" fill="white"/>
<path d="M1391.53 258C1385.83 258 1380.93 257.799 1376.84 257.397C1372.74 256.996 1369.39 256.293 1366.79 255.288C1364.19 254.184 1362.24 252.727 1360.94 250.92C1359.74 249.011 1359.14 246.651 1359.14 243.839C1359.14 240.525 1359.99 236.207 1361.69 230.884L1386.43 154.506H1413.73L1404.88 181.623H1427.82L1421.98 200.001H1399.03L1389.43 229.377C1389.03 230.582 1388.73 231.637 1388.53 232.541C1388.33 233.445 1388.23 234.298 1388.23 235.102C1388.23 236.809 1388.83 238.014 1390.03 238.717C1391.33 239.42 1393.43 239.772 1396.33 239.772H1407.28L1401.43 258H1391.53Z" fill="white"/>
<path d="M1430.95 258C1424.85 258 1420.5 256.795 1417.91 254.385C1415.41 251.874 1414.16 248.56 1414.16 244.442C1414.16 241.329 1414.66 238.115 1415.66 234.801C1416.66 231.386 1418.01 228.222 1419.7 225.31C1422.3 220.891 1425.65 217.476 1429.75 215.066C1433.95 212.656 1439.35 211.451 1445.95 211.451H1493.19C1493.79 209.241 1494.09 207.333 1494.09 205.726C1494.09 203.516 1493.34 202.01 1491.84 201.207C1490.44 200.403 1488.04 200.001 1484.64 200.001H1430.05L1435.9 181.623H1488.99C1499.89 181.623 1507.93 183.179 1513.13 186.293C1518.43 189.306 1521.08 194.528 1521.08 201.96C1521.08 206.68 1519.93 212.656 1517.63 219.887L1505.34 258H1430.95ZM1489.29 225.912H1451.95C1447.95 225.912 1444.85 227.319 1442.65 230.131C1442.05 231.034 1441.5 232.089 1441 233.294C1440.6 234.399 1440.4 235.554 1440.4 236.759C1440.4 238.567 1441.75 239.471 1444.45 239.471H1484.79L1489.29 225.912Z" fill="white"/>
<path d="M1590.26 258L1603.46 216.874C1604.06 215.066 1604.51 213.409 1604.81 211.902C1605.21 210.396 1605.41 209.09 1605.41 207.986C1605.41 205.575 1604.51 203.818 1602.71 202.713C1601.01 201.608 1598.01 201.056 1593.71 201.056H1569.56C1567.56 201.056 1566.02 201.056 1564.92 201.056C1563.82 200.956 1562.62 200.805 1561.32 200.604L1542.87 258H1515.73L1540.32 181.623H1603.31C1612.6 181.623 1619.85 183.38 1625.05 186.895C1630.35 190.31 1633 195.783 1633 203.316C1633 207.433 1632.2 211.953 1630.6 216.874L1617.4 258H1590.26Z" fill="white"/>
</g>
<defs>
<clipPath id="clip0_1_6">
<rect width="1720" height="326" fill="white"/>
</clipPath>
</defs>
</svg>
